<svg id="Layer_1" data-name="Layer 1" xmlns="http://www.w3.org/2000/svg" viewBox="0 0 192.1 191.83">
  <title>qr-scan-icon</title>
  <g>
    <path d="M27.3,27.25H81.8V79.06c0,1,.29,2-.89,2.69H27.3ZM38,38.05V61.68c0,2.5,0,5,0,7.49a2,2,0,0,0,.9,1.79H70.09c1.21-.68.9-1.75.91-2.71q0-14.07,0-28.14c0-.47.21-1,0-1.19l-.87-.87Z" transform="translate(-4.44 -4.49)"/>
    <path d="M173.5,81.75H119.85c-.41-.46-1-.75-.87-1.5a8.22,8.22,0,0,0,0-1.49V27.35h54.5ZM162.72,70.18V38.07H130.63l-.83.83V56.24c0,4.19,0,8.39,0,12.58,0,.81,0,1.6.92,2.12H162Z" transform="translate(-4.44 -4.49)"/>
    <path d="M81.7,173.55H27.31V119.06H81l.74.74ZM70.1,129.8H48.21c-2.79,0-5.59,0-8.38,0a2,2,0,0,0-1.76.86c-.36,11.53-.23,29.5.22,32.08h31.9L71,162v-31.3Z" transform="translate(-4.44 -4.49)"/>
    <path d="M162.7,124.45h10.8v49.09H126.92V162.83h13.66v-8.37h10.71v8.29c3.84.11,7.58,0,11.41.06Z" transform="translate(-4.44 -4.49)"/>
    <path d="M115.34,162.7v10.81H95.14V119.76a1.92,1.92,0,0,1,1.75-.78c2.69,0,5.38,0,8,0l.8.8v20.14l3.87.06h3.73l.83.83v10.54h-8.27V162.7Z" transform="translate(-4.44 -4.49)"/>
    <path d="M43.29,15l-.82.82H15.89V42.41l-.92.92H4.48V4.54H43.29Z" transform="translate(-4.44 -4.49)"/>
    <path d="M157.46,14.89V4.49h38.65c.45,2.58.6,26.51.21,38.91-1.95,0-3.93.11-5.89,0-1.79-.14-3.76.74-5.44-.76V15.8H159.83C158.94,15.8,158,16,157.46,14.89Z" transform="translate(-4.44 -4.49)"/>
    <path d="M4.44,196.32V157.51H15l.78.89v26.5H42.43l.9,1v10.44Z" transform="translate(-4.44 -4.49)"/>
    <path d="M157.46,196.3V185.86a2,2,0,0,1,2.07-.88c5,0,10,0,15,0H185c.1-4.44,0-8.89.05-13.34s0-9,0-13.36c.3-.3.49-.67.72-.7,3.46-.45,6.93-.06,10.54-.23V196.3Z" transform="translate(-4.44 -4.49)"/>
    <path d="M134.53,95.1v10.58H94a1.94,1.94,0,0,1-.81-1.78c0-2.68,0-5.37,0-8l.8-.8Z" transform="translate(-4.44 -4.49)"/>
    <path d="M129.31,130.81l-1.06-1.06h-8V119.11h28.62c.25,3.42,0,7,.13,10.6h-8l-1.06,1.06v7.37H129.31Z" transform="translate(-4.44 -4.49)"/>
    <path d="M146.7,95.05h26.79v17.89H162.91v-6.7a2.74,2.74,0,0,0-.31-.33.43.43,0,0,0-.26-.11H146.7Z" transform="translate(-4.44 -4.49)"/>
    <path d="M95,49.47h10.68V81a1.93,1.93,0,0,1-1.78.81c-2.68,0-5.37,0-8,0A2.12,2.12,0,0,1,95,80c.09-2.49,0-5,0-7.48v-23Z" transform="translate(-4.44 -4.49)"/>
    <path d="M49.46,105.8V95.11H81l.73.73V105a2,2,0,0,1-1.78.88c-2.89-.07-5.78,0-8.67,0H49.46Z" transform="translate(-4.44 -4.49)"/>
    <path d="M95.05,37.9V27.3H105.6s.05,0,.11.11a.62.62,0,0,1,.09.26V37.9Z" transform="translate(-4.44 -4.49)"/>
    <path d="M38,95.1v10.6H27.2V95.1Z" transform="translate(-4.44 -4.49)"/>
    <path d="M48.85,59.5V48.9H59.4s.05,0,.11.11a.62.62,0,0,1,.09.26V59.5Z" transform="translate(-4.44 -4.49)"/>
    <path d="M141.3,48.85h10.6V59.59c-3.43,0-7,0-10.6,0Z" transform="translate(-4.44 -4.49)"/>
    <path d="M59.5,152H48.9V141.24c3.42-.1,7,0,10.6-.05Z" transform="translate(-4.44 -4.49)"/>
  </g>
</svg>
